# xmcd
#
# Track frame offsets: 
#        150
#        22841
#        43209
#        53504
#        72572
#        84773
#        101608
#        115896
#        138953
#        160976
#        177605
#        199133
#        217619
#        237283
#        253882
#        274925
#
# Disc length: 3879 seconds
#
# Revision: 0
# Processed by: cddbd v1.5.2PL0 Copyright (c) Steve Scherf et al.
# Submitted via: ExactAudioCopy v0.99pb4
#
DISCID=df0f2510
DTITLE=Matthias Schlechter und Markus Pohle - Matthias Schlechter and Ma
DTITLE=rkus Pohle Live
DYEAR=2000
DGENRE=Boogie Woogie Blues Ragtime
TTITLE0=2-4 Boogie
TTITLE1=G-H-Blues
TTITLE2=Sporting House Rag
TTITLE3=Suitcase Blues
TTITLE4=Shreveport Stomp
TTITLE5=Medley: Emaline and Handful of Keys
TTITLE6=Just For You
TTITLE7=Boogie in C
TTITLE8=Kansas City
TTITLE9=A Man To His Word
TTITLE10=You Gonna Need Me
TTITLE11=Mornin' Light Boogie
TTITLE12=Bring It On Home
TTITLE13=Great Balls Of Fire
TTITLE14=I've Got To Move
TTITLE15=I'm The Boogie Man
EXTD=
EXTT0=
EXTT1=
EXTT2=
EXTT3=
EXTT4=
EXTT5=
EXTT6=
EXTT7=
EXTT8=
EXTT9=
EXTT10=
EXTT11=
EXTT12=
EXTT13=
EXTT14=
EXTT15=
PLAYORDER=
